<svg width="20" height="20" viewBox="0 0 20 20" fill="none" xmlns="http://www.w3.org/2000/svg">
<path fill-rule="evenodd" clip-rule="evenodd" d="M10 19.6C12.5461 19.6 14.9879 18.5886 16.7882 16.7882C18.5886 14.9879 19.6 12.5461 19.6 10C19.6 7.45395 18.5886 5.01215 16.7882 3.2118C14.9879 1.41145 12.5461 0.400024 10 0.400024C7.45395 0.400024 5.01215 1.41145 3.2118 3.2118C1.41145 5.01215 0.400024 7.45395 0.400024 10C0.400024 12.5461 1.41145 14.9879 3.2118 16.7882C5.01215 18.5886 7.45395 19.6 10 19.6ZM11.2 6.40002C11.2 6.08176 11.0736 5.77654 10.8486 5.5515C10.6235 5.32645 10.3183 5.20002 10 5.20002C9.68176 5.20002 9.37654 5.32645 9.1515 5.5515C8.92645 5.77654 8.80002 6.08176 8.80002 6.40002V8.80002H6.40002C6.08176 8.80002 5.77654 8.92645 5.5515 9.1515C5.32645 9.37654 5.20002 9.68176 5.20002 10C5.20002 10.3183 5.32645 10.6235 5.5515 10.8486C5.77654 11.0736 6.08176 11.2 6.40002 11.2H8.80002V13.6C8.80002 13.9183 8.92645 14.2235 9.1515 14.4486C9.37654 14.6736 9.68176 14.8 10 14.8C10.3183 14.8 10.6235 14.6736 10.8486 14.4486C11.0736 14.2235 11.2 13.9183 11.2 13.6V11.2H13.6C13.9183 11.2 14.2235 11.0736 14.4486 10.8486C14.6736 10.6235 14.8 10.3183 14.8 10C14.8 9.68176 14.6736 9.37654 14.4486 9.1515C14.2235 8.92645 13.9183 8.80002 13.6 8.80002H11.2V6.40002Z" fill="white"/>
</svg>
