<svg width="89" height="89" viewBox="0 0 89 89" fill="none" xmlns="http://www.w3.org/2000/svg">
<path d="M79.5018 17.943C73.3441 9.85872 64.5738 4.15966 54.6853 1.81684C44.7967 -0.525972 34.4017 0.632416 25.2715 5.09463C16.1413 9.55685 8.84072 17.0468 4.61376 26.2883C0.3868 35.5298 -0.50503 45.951 2.09023 55.7764C4.68548 65.6017 10.6073 74.2232 18.8465 80.1718C27.0858 86.1205 37.1328 89.0283 47.2757 88.3997C57.4185 87.7712 67.0296 83.6452 74.4714 76.7247C81.9132 69.8043 86.7252 60.5176 88.0874 50.447L74.7463 48.6423C73.8015 55.6263 70.4644 62.0667 65.3034 66.8661C60.1425 71.6655 53.4771 74.5269 46.443 74.9628C39.4088 75.3987 32.4411 73.3822 26.7271 69.2567C21.0131 65.1313 16.9063 59.1522 15.1065 52.3382C13.3067 45.5243 13.9252 38.2971 16.8566 31.888C19.788 25.479 24.851 20.2846 31.1829 17.1901C37.5148 14.0955 44.7238 13.2921 51.5816 14.9169C58.4394 16.5416 64.5217 20.494 68.7921 26.1005L79.5018 17.943Z" fill="#365A96"/>
</svg>
