<svg width="124" height="124" viewBox="0 0 124 124" fill="none" xmlns="http://www.w3.org/2000/svg">
<path d="M49.2373 60.9951C47.9014 60.0752 47.2334 59.0674 47.2334 57.9717C47.2334 56.9873 47.5908 56.1904 48.3057 55.5811C49.0205 54.9658 49.9521 54.6582 51.1006 54.6582C52.1963 54.6582 53.0723 54.9189 53.7285 55.4404C54.3848 55.9561 54.7129 56.6475 54.7129 57.5146C54.7129 58.8447 53.8574 59.9492 52.1465 60.8281C54.2207 61.707 55.2578 62.9756 55.2578 64.6338C55.2578 65.7178 54.8447 66.6055 54.0186 67.2969C53.1924 67.9824 52.1318 68.3252 50.8369 68.3252C49.5713 68.3252 48.5459 68.0059 47.7607 67.3672C46.9756 66.7227 46.583 65.8789 46.583 64.8359C46.583 63.0898 47.4678 61.8096 49.2373 60.9951ZM51.6719 60.5293C52.6914 59.7793 53.2012 58.7861 53.2012 57.5498C53.2012 56.8467 52.9932 56.2812 52.5771 55.8535C52.167 55.4199 51.6191 55.2031 50.9336 55.2031C50.3242 55.2031 49.8057 55.417 49.3779 55.8447C48.9561 56.2666 48.7451 56.7852 48.7451 57.4004C48.7451 58.0039 48.9385 58.5137 49.3252 58.9297C49.7119 59.3398 50.4941 59.873 51.6719 60.5293ZM49.6328 61.373C48.7539 62.1816 48.3145 63.2627 48.3145 64.6162C48.3145 65.5889 48.5488 66.3594 49.0176 66.9277C49.4922 67.4961 50.1309 67.7803 50.9336 67.7803C51.6777 67.7803 52.2959 67.5283 52.7881 67.0244C53.2803 66.5205 53.5264 65.8877 53.5264 65.126C53.5264 64.4932 53.3389 63.9629 52.9639 63.5352C52.5889 63.1016 51.8857 62.6035 50.8545 62.041L49.6328 61.373ZM61.9023 68.3252C60.5254 68.3252 59.4209 67.71 58.5889 66.4795C57.7627 65.2432 57.3496 63.5967 57.3496 61.54C57.3496 59.4424 57.7598 57.7725 58.5801 56.5303C59.4062 55.2881 60.5137 54.667 61.9023 54.667C63.291 54.667 64.3955 55.2881 65.2158 56.5303C66.042 57.7725 66.4551 59.4395 66.4551 61.5312C66.4551 63.5938 66.042 65.2432 65.2158 66.4795C64.3896 67.71 63.2852 68.3252 61.9023 68.3252ZM61.9023 67.7803C62.7695 67.7803 63.4492 67.2617 63.9414 66.2246C64.3926 65.2871 64.6182 63.7109 64.6182 61.4961C64.6182 59.2695 64.3926 57.6934 63.9414 56.7676C63.4434 55.7246 62.752 55.2031 61.8672 55.2031C61.0352 55.2031 60.3672 55.7246 59.8633 56.7676C59.418 57.6875 59.1953 59.2637 59.1953 61.4961C59.1953 63.7109 59.418 65.2871 59.8633 66.2246C60.3555 67.2617 61.0352 67.7803 61.9023 67.7803ZM67.6768 68.3252L78.1357 54.667H79.2256L68.7754 68.3252H67.6768ZM70.3398 61.4961C69.5254 61.4961 68.8604 61.1943 68.3447 60.5908C67.8291 59.9814 67.5713 59.1992 67.5713 58.2441C67.5713 57.2832 67.8291 56.501 68.3447 55.8975C68.8604 55.2939 69.5254 54.9922 70.3398 54.9922C71.1484 54.9922 71.8105 55.2939 72.3262 55.8975C72.8418 56.501 73.0996 57.2832 73.0996 58.2441C73.0996 59.1992 72.8418 59.9814 72.3262 60.5908C71.8164 61.1943 71.1543 61.4961 70.3398 61.4961ZM70.3398 60.9512C70.8262 60.9512 71.1895 60.7256 71.4297 60.2744C71.6758 59.8174 71.7988 59.1377 71.7988 58.2354C71.7988 57.333 71.6758 56.6562 71.4297 56.2051C71.1895 55.7539 70.8262 55.5283 70.3398 55.5283C69.8535 55.5283 69.4873 55.7539 69.2412 56.2051C68.9951 56.6562 68.8721 57.333 68.8721 58.2354C68.8721 59.1377 68.9951 59.8174 69.2412 60.2744C69.4873 60.7256 69.8535 60.9512 70.3398 60.9512ZM76.5713 68C75.7568 68 75.0918 67.6982 74.5762 67.0947C74.0605 66.4854 73.8027 65.7031 73.8027 64.748C73.8027 63.793 74.0605 63.0137 74.5762 62.4102C75.0918 61.8008 75.7568 61.4961 76.5713 61.4961C77.3857 61.4961 78.0508 61.8008 78.5664 62.4102C79.082 63.0137 79.3398 63.793 79.3398 64.748C79.3398 65.7031 79.082 66.4854 78.5664 67.0947C78.0508 67.6982 77.3857 68 76.5713 68ZM76.5713 67.4639C77.0635 67.4639 77.4297 67.2383 77.6699 66.7871C77.916 66.3301 78.0391 65.6475 78.0391 64.7393C78.0391 63.8369 77.916 63.1602 77.6699 62.709C77.4297 62.2578 77.0635 62.0322 76.5713 62.0322C76.085 62.0322 75.7188 62.2578 75.4727 62.709C75.2266 63.1602 75.1035 63.8369 75.1035 64.7393C75.1035 65.6475 75.2266 66.3301 75.4727 66.7871C75.7188 67.2383 76.085 67.4639 76.5713 67.4639Z" fill="#C8D1E2"/>
<path d="M96.5018 34.943C90.3441 26.8587 81.5738 21.1597 71.6853 18.8168C61.7967 16.474 51.4017 17.6324 42.2715 22.0946C33.1413 26.5568 25.8407 34.0468 21.6138 43.2883C17.3868 52.5298 16.495 62.951 19.0902 72.7764C21.6855 82.6017 27.6073 91.2232 35.8465 97.1718C44.0858 103.121 54.1328 106.028 64.2757 105.4C74.4185 104.771 84.0296 100.645 91.4714 93.7247C98.9132 86.8043 103.725 77.5176 105.087 67.447L91.7463 65.6423C90.8015 72.6263 87.4644 79.0667 82.3034 83.8661C77.1425 88.6655 70.4771 91.5269 63.443 91.9628C56.4088 92.3987 49.4411 90.3822 43.7271 86.2567C38.0131 82.1313 33.9063 76.1522 32.1065 69.3382C30.3067 62.5243 30.9252 55.2971 33.8566 48.888C36.788 42.479 41.851 37.2846 48.1829 34.1901C54.5148 31.0955 61.7238 30.2921 68.5816 31.9169C75.4394 33.5416 81.5217 37.494 85.7921 43.1005L96.5018 34.943Z" fill="#365A96"/>
</svg>
