<svg width="20" height="20" viewBox="0 0 20 20" fill="none" xmlns="http://www.w3.org/2000/svg">
<path fill-rule="evenodd" clip-rule="evenodd" d="M19.2483 9.15162C19.4733 9.37666 19.5996 9.68183 19.5996 10C19.5996 10.3182 19.4733 10.6234 19.2483 10.8484L10.8483 19.2484C10.6233 19.4734 10.3181 19.5998 9.9999 19.5998C9.68171 19.5998 9.37654 19.4734 9.1515 19.2484L0.751503 10.8484C0.639905 10.7371 0.551395 10.6049 0.491056 10.4593C0.430718 10.3137 0.39974 10.1576 0.399903 10V4.00002C0.399903 3.04524 0.779188 2.12957 1.45432 1.45444C2.12945 0.779309 3.04512 0.400024 3.9999 0.400024H9.9999C10.3071 0.400024 10.6143 0.517624 10.8483 0.751624L19.2483 9.15162ZM3.9999 5.20002C4.31816 5.20002 4.62339 5.0736 4.84843 4.84855C5.07347 4.62351 5.1999 4.31828 5.1999 4.00002C5.1999 3.68176 5.07347 3.37654 4.84843 3.1515C4.62339 2.92645 4.31816 2.80002 3.9999 2.80002C3.68164 2.80002 3.37642 2.92645 3.15138 3.1515C2.92633 3.37654 2.7999 3.68176 2.7999 4.00002C2.7999 4.31828 2.92633 4.62351 3.15138 4.84855C3.37642 5.0736 3.68164 5.20002 3.9999 5.20002Z" fill="#C8D1E2"/>
</svg>
