<svg width="20" height="18" viewBox="0 0 20 18" fill="none" xmlns="http://www.w3.org/2000/svg">
<path fill-rule="evenodd" clip-rule="evenodd" d="M1.5999 0.599976C1.91816 0.599976 2.22339 0.726404 2.44843 0.951447C2.67347 1.17649 2.7999 1.48172 2.7999 1.79998V16.2C2.7999 16.5182 2.67347 16.8235 2.44843 17.0485C2.22339 17.2735 1.91816 17.4 1.5999 17.4C1.28164 17.4 0.976418 17.2735 0.751374 17.0485C0.526331 16.8235 0.399902 16.5182 0.399902 16.2V1.79998C0.399902 1.48172 0.526331 1.17649 0.751374 0.951447C0.976418 0.726404 1.28164 0.599976 1.5999 0.599976ZM10.8483 4.55158C11.0733 4.77661 11.1996 5.08178 11.1996 5.39998C11.1996 5.71817 11.0733 6.02334 10.8483 6.24837L9.2967 7.79998H18.3999C18.7182 7.79998 19.0234 7.9264 19.2484 8.15145C19.4735 8.37649 19.5999 8.68172 19.5999 8.99998C19.5999 9.31823 19.4735 9.62346 19.2484 9.8485C19.0234 10.0735 18.7182 10.2 18.3999 10.2H9.2967L10.8483 11.7516C11.0669 11.9779 11.1878 12.281 11.1851 12.5957C11.1824 12.9103 11.0562 13.2113 10.8337 13.4338C10.6112 13.6562 10.3102 13.7824 9.99558 13.7852C9.68095 13.7879 9.37783 13.667 9.1515 13.4484L5.5515 9.84837C5.32654 9.62334 5.20016 9.31817 5.20016 8.99998C5.20016 8.68178 5.32654 8.37661 5.5515 8.15158L9.1515 4.55158C9.37654 4.32661 9.68171 4.20023 9.9999 4.20023C10.3181 4.20023 10.6233 4.32661 10.8483 4.55158Z" fill="#C8D1E2"/>
</svg>
