<svg width="20" height="20" viewBox="0 0 20 20" fill="none" xmlns="http://www.w3.org/2000/svg">
<path fill-rule="evenodd" clip-rule="evenodd" d="M5.1999 0.400024C4.88164 0.400024 4.57642 0.526453 4.35137 0.751496C4.12633 0.97654 3.9999 1.28176 3.9999 1.60002V2.80002H2.7999C2.16338 2.80002 1.55293 3.05288 1.10285 3.50297C0.652759 3.95306 0.399902 4.56351 0.399902 5.20002V17.2C0.399902 17.8365 0.652759 18.447 1.10285 18.8971C1.55293 19.3472 2.16338 19.6 2.7999 19.6H17.1999C17.8364 19.6 18.4469 19.3472 18.897 18.8971C19.347 18.447 19.5999 17.8365 19.5999 17.2V5.20002C19.5999 4.56351 19.347 3.95306 18.897 3.50297C18.4469 3.05288 17.8364 2.80002 17.1999 2.80002H15.9999V1.60002C15.9999 1.28176 15.8735 0.97654 15.6484 0.751496C15.4234 0.526453 15.1182 0.400024 14.7999 0.400024C14.4816 0.400024 14.1764 0.526453 13.9514 0.751496C13.7263 0.97654 13.5999 1.28176 13.5999 1.60002V2.80002H6.3999V1.60002C6.3999 1.28176 6.27347 0.97654 6.04843 0.751496C5.82339 0.526453 5.51816 0.400024 5.1999 0.400024ZM5.1999 6.40002C4.88164 6.40002 4.57642 6.52645 4.35137 6.7515C4.12633 6.97654 3.9999 7.28176 3.9999 7.60002C3.9999 7.91828 4.12633 8.22351 4.35137 8.44855C4.57642 8.6736 4.88164 8.80002 5.1999 8.80002H14.7999C15.1182 8.80002 15.4234 8.6736 15.6484 8.44855C15.8735 8.22351 15.9999 7.91828 15.9999 7.60002C15.9999 7.28176 15.8735 6.97654 15.6484 6.7515C15.4234 6.52645 15.1182 6.40002 14.7999 6.40002H5.1999Z" fill="#C8D1E2"/>
</svg>
