<svg width="20" height="21" viewBox="0 0 20 21" fill="none" xmlns="http://www.w3.org/2000/svg">
<path d="M1.5999 0.199951C1.28164 0.199951 0.976418 0.326379 0.751374 0.551423C0.526331 0.776467 0.399902 1.08169 0.399902 1.39995C0.399902 1.71821 0.526331 2.02344 0.751374 2.24848C0.976418 2.47352 1.28164 2.59995 1.5999 2.59995H3.0639L3.4299 4.06635C3.43354 4.08324 3.43754 4.10004 3.4419 4.11675L5.0715 10.6328L3.9999 11.7032C2.4879 13.2152 3.5583 15.8 5.6967 15.8H15.9999C16.3182 15.8 16.6234 15.6735 16.8484 15.4485C17.0735 15.2234 17.1999 14.9182 17.1999 14.6C17.1999 14.2817 17.0735 13.9765 16.8484 13.7514C16.6234 13.5264 16.3182 13.4 15.9999 13.4H5.6967L6.8967 12.2H14.7999C15.0227 12.1998 15.2411 12.1377 15.4305 12.0205C15.62 11.9033 15.7731 11.7356 15.8727 11.5364L19.4727 4.33635C19.5641 4.15345 19.6072 3.95022 19.598 3.74596C19.5888 3.5417 19.5276 3.34317 19.4201 3.16922C19.3127 2.99528 19.1625 2.85167 18.984 2.75204C18.8054 2.65241 18.6044 2.60006 18.3999 2.59995H5.5359L5.1639 1.10835C5.0989 0.848855 4.94905 0.618521 4.73815 0.453938C4.52726 0.289354 4.26742 0.199958 3.9999 0.199951H1.5999ZM17.1999 18.7999C17.1999 19.2773 17.0103 19.7352 16.6727 20.0727C16.3351 20.4103 15.8773 20.6 15.3999 20.6C14.9225 20.6 14.4647 20.4103 14.1271 20.0727C13.7895 19.7352 13.5999 19.2773 13.5999 18.7999C13.5999 18.3226 13.7895 17.8647 14.1271 17.5272C14.4647 17.1896 14.9225 17 15.3999 17C15.8773 17 16.3351 17.1896 16.6727 17.5272C17.0103 17.8647 17.1999 18.3226 17.1999 18.7999ZM5.7999 20.6C6.27729 20.6 6.73513 20.4103 7.0727 20.0727C7.41026 19.7352 7.5999 19.2773 7.5999 18.7999C7.5999 18.3226 7.41026 17.8647 7.0727 17.5272C6.73513 17.1896 6.27729 17 5.7999 17C5.32251 17 4.86468 17.1896 4.52711 17.5272C4.18954 17.8647 3.9999 18.3226 3.9999 18.7999C3.9999 19.2773 4.18954 19.7352 4.52711 20.0727C4.86468 20.4103 5.32251 20.6 5.7999 20.6Z" fill="#C8D1E2"/>
</svg>
