<svg width="62" height="46" viewBox="0 0 62 46" fill="none" xmlns="http://www.w3.org/2000/svg">
<path d="M41.0902 1.00977V1H43.9035L44.9315 1.18557C45.6168 1.30605 46.239 1.46393 46.798 1.65927C47.3571 1.85461 47.8981 2.08252 48.4211 2.34295C48.9441 2.60339 49.4184 2.86875 49.8441 3.13896C50.2661 3.40594 50.6448 3.68918 50.9802 3.98868C51.312 4.29145 51.8296 4.36959 52.5329 4.22309C53.2363 4.07658 53.9937 3.87309 54.8052 3.61265C55.6168 3.35222 56.4193 3.05921 57.2128 2.73363C58.0063 2.40805 58.4897 2.20133 58.6628 2.11343C58.8323 2.0223 58.9225 1.97347 58.9333 1.96693L58.9441 1.95228L58.9982 1.92786L59.0523 1.90344L59.1064 1.87902L59.1605 1.85461L59.1713 1.83996L59.1876 1.83019L59.2038 1.82042L59.2146 1.80577L59.2687 1.79112L59.3228 1.78135L59.312 1.85461L59.2958 1.92786L59.2687 2.00111L59.2417 2.07436L59.2146 2.1232L59.1876 2.17203L59.1605 2.24528C59.1425 2.29412 59.1245 2.35921 59.1064 2.44062C59.0884 2.52203 58.917 2.84756 58.5924 3.41731C58.2678 3.98707 57.862 4.56493 57.3751 5.15094C56.8882 5.73696 56.4518 6.17969 56.0659 6.47925C55.6763 6.78202 55.4184 6.99362 55.2922 7.1141C55.1659 7.23779 55.0127 7.35172 54.8323 7.45594L54.5618 7.61709L54.5077 7.64151L54.4536 7.66593L54.4428 7.68058L54.4265 7.69034L54.4103 7.70011L54.3995 7.71476L54.3454 7.73918L54.2913 7.7636L54.2805 7.77825L54.2642 7.78801L54.248 7.79778L54.2372 7.81243L54.2264 7.82708L54.2101 7.83685L54.1939 7.84661L54.183 7.86127H54.4536L55.9684 7.56826C56.9784 7.37292 57.9432 7.1369 58.8629 6.86016L60.3237 6.42064L60.486 6.37181L60.5672 6.34739L60.6213 6.32297L60.6754 6.29856L60.7295 6.27414L60.7836 6.24972L60.8918 6.23507L61 6.22531V6.32297L60.9729 6.33274L60.9459 6.34739L60.9351 6.36204L60.9188 6.37181L60.9026 6.38158L60.8918 6.39623L60.881 6.41088L60.8647 6.42064L60.8485 6.43041L60.8377 6.44506L60.8269 6.45971L60.8106 6.46948L60.7836 6.51831L60.7565 6.56715L60.7403 6.57691C60.7331 6.58668 60.5041 6.86338 60.0532 7.4071C59.6024 7.95405 59.3589 8.23075 59.3228 8.23729C59.2868 8.24706 59.2362 8.29589 59.1713 8.3838C59.11 8.47492 58.7277 8.83796 58.0243 9.47281C57.321 10.1077 56.6322 10.6725 55.9577 11.1674C55.2796 11.6655 54.9369 12.2775 54.9297 13.0036C54.9189 13.7263 54.8774 14.5435 54.8052 15.4551C54.7331 16.3666 54.5979 17.3514 54.3995 18.4095C54.2011 19.4676 53.8945 20.6641 53.4797 21.9989C53.065 23.3337 52.56 24.636 51.9648 25.9057C51.3697 27.1754 50.7475 28.3148 50.0983 29.3241C49.4491 30.3334 48.8539 31.188 48.3129 31.8879C47.7719 32.5879 47.2219 33.2471 46.6628 33.8657C46.1037 34.4843 45.3968 35.181 44.542 35.9558C43.6835 36.7274 43.2147 37.1507 43.1353 37.2255C43.0524 37.2972 42.6989 37.5641 42.0748 38.0264C41.4545 38.492 40.7872 38.9575 40.073 39.4231C39.3625 39.8854 38.7096 40.2712 38.1145 40.5805C37.5194 40.8897 36.8017 41.243 35.9612 41.6402C35.1245 42.0406 34.2191 42.4118 33.2453 42.7536C32.2714 43.0955 31.2435 43.4129 30.1614 43.7059C29.0794 43.9989 28.0334 44.2268 27.0234 44.3896C26.0136 44.5523 24.8684 44.6907 23.5879 44.8047L21.6673 44.9756V45H18.1506V44.9756L17.6907 44.9512C17.3842 44.9349 17.1317 44.9186 16.9333 44.9023C16.7349 44.8861 15.9865 44.7965 14.688 44.6337C13.3895 44.471 12.3706 44.3082 11.6312 44.1454C10.8918 43.9826 9.7917 43.6733 8.33093 43.2175C6.87015 42.7618 5.62038 42.3011 4.5816 41.8355C3.54646 41.3732 2.89722 41.0802 2.6339 40.9565C2.37421 40.836 2.08206 40.6863 1.75744 40.5072L1.27051 40.2386L1.25975 40.224L1.24346 40.2142L1.22723 40.2044L1.21641 40.1898L1.16231 40.1654L1.10821 40.141L1.09744 40.1263L1.08115 40.1165L1.06492 40.1068L1.0541 40.0921L1.04334 40.0775L1.02705 40.0677H1V39.97L1.0541 39.9798L1.10821 39.9945L1.35167 40.0189C1.51398 40.0351 1.95583 40.0595 2.67719 40.0921C3.39859 40.1247 4.16501 40.1247 4.97656 40.0921C5.7881 40.0595 6.61771 39.9863 7.46528 39.8724C8.31291 39.7584 9.31381 39.5631 10.468 39.2864C11.6222 39.0096 12.6826 38.6808 13.6493 38.2999C14.6123 37.9158 15.2976 37.6292 15.7052 37.4404C16.1091 37.2548 16.7259 36.9097 17.5555 36.4051L18.7998 35.6482L18.8106 35.6335L18.8269 35.6238L18.8432 35.614L18.8539 35.5993L18.8647 35.5847L18.881 35.5749L18.8973 35.5652L18.908 35.5505L18.9621 35.5359L19.0162 35.5261L19.0271 35.4772L19.0433 35.4284L19.0596 35.4186L19.0703 35.404L18.6375 35.3796C18.349 35.3633 18.0694 35.347 17.7989 35.3307C17.5284 35.3145 17.1046 35.2412 16.5275 35.111C15.9504 34.9807 15.3283 34.7854 14.661 34.525C13.9937 34.2645 13.3445 33.9552 12.7133 33.5971C12.0821 33.239 11.6258 32.9411 11.3445 32.7034C11.0667 32.469 10.706 32.137 10.2624 31.7072C9.82238 31.2742 9.44004 30.8298 9.11542 30.374C8.7908 29.9183 8.48063 29.3924 8.18491 28.7967L7.7358 27.9079L7.70875 27.8346L7.6817 27.7614L7.66546 27.7125L7.65464 27.6637L7.7358 27.6735L7.81695 27.6881L8.41208 27.7614C8.80887 27.8102 9.43106 27.8265 10.2786 27.8102C11.1263 27.7939 11.7124 27.7614 12.037 27.7125C12.3616 27.6637 12.56 27.6311 12.6321 27.6149L12.7403 27.5905L12.8756 27.566L13.0108 27.5416L13.0216 27.527L13.0379 27.5172L13.0542 27.5074L13.0649 27.4928L12.9567 27.4684L12.8485 27.444L12.7403 27.4195L12.6321 27.3951L12.5239 27.3707C12.4518 27.3544 12.3256 27.3219 12.1452 27.273C11.9649 27.2242 11.4779 27.0451 10.6844 26.7358C9.89093 26.4266 9.25971 26.1254 8.7908 25.8324C8.32073 25.5386 7.87252 25.2172 7.44905 24.8704C7.02705 24.5188 6.56361 24.0662 6.05861 23.5128C5.55367 22.9593 5.10283 22.3163 4.70604 21.5838C4.30931 20.8513 4.01174 20.1513 3.81335 19.4839C3.61575 18.8204 3.48538 18.1421 3.42386 17.4573L3.32642 16.4317L3.38052 16.4415L3.43463 16.4562L3.48873 16.4806L3.54283 16.505L3.59693 16.5294L3.65104 16.5538L4.48963 16.8957C5.04873 17.1236 5.74303 17.3189 6.57259 17.4817C7.4022 17.6445 7.89811 17.734 8.06041 17.7503L8.30388 17.7747H8.7908L8.78004 17.76L8.76375 17.7503L8.74752 17.7405L8.7367 17.7259L8.72593 17.7112L8.70965 17.7014L8.69342 17.6917L8.6826 17.677L8.62849 17.6526L8.57439 17.6282L8.56362 17.6135L8.54734 17.6038L8.53111 17.594L8.52029 17.5794L8.46619 17.5549L8.41208 17.5305L8.40132 17.5159C8.3905 17.5093 8.23538 17.4052 7.93598 17.2033C7.6402 16.9982 7.33003 16.7329 7.00541 16.4073C6.68079 16.0817 6.35618 15.7399 6.03156 15.3818C5.70635 15.0229 5.41668 14.6389 5.16592 14.2342C4.91347 13.8272 4.64653 13.3095 4.36519 12.6812C4.08748 12.0562 3.87648 11.4262 3.73219 10.7913C3.58795 10.1565 3.5068 9.5298 3.48873 8.91121C3.47071 8.29262 3.48873 7.7636 3.54283 7.32408C3.59693 6.88457 3.70514 6.38807 3.86745 5.83463C4.02976 5.28119 4.26424 4.69517 4.57078 4.07658L5.03066 3.14872L5.05771 3.07547L5.08476 3.00222L5.10105 2.99245L5.11181 2.9778L5.12263 2.96315L5.13886 2.95339L5.15515 2.96315L5.16592 2.9778L5.17674 2.99245L5.19297 3.00222L5.20925 3.01199L5.22002 3.02664L5.23084 3.04129L5.24707 3.05105L5.27412 3.09989L5.30117 3.14872L5.31746 3.15849L5.32822 3.17314L6.05861 3.90566C6.54554 4.39401 7.12265 4.93934 7.7899 5.54162C8.4572 6.1439 8.82689 6.45644 8.89901 6.47925C8.97118 6.50527 9.06132 6.58014 9.16952 6.70389C9.27773 6.82436 9.63843 7.11248 10.2516 7.56826C10.8648 8.02403 11.6673 8.55311 12.6592 9.15538C13.6511 9.75766 14.7511 10.3518 15.9594 10.9378C17.1678 11.5239 18.4662 12.0529 19.8548 12.525C21.2435 12.9971 22.2173 13.3063 22.7764 13.4528C23.3355 13.5993 24.2913 13.7865 25.6438 14.0144C26.9964 14.2423 28.0154 14.3888 28.7006 14.4539C29.386 14.519 29.8549 14.5565 30.1073 14.5663L30.486 14.576L30.4753 14.5028L30.459 14.4295L30.3508 13.8191C30.2786 13.4122 30.2426 12.8424 30.2426 12.1099C30.2426 11.3774 30.3057 10.7018 30.4319 10.0832C30.5582 9.46465 30.7476 8.83796 31 8.20311C31.2525 7.56826 31.4996 7.05872 31.7412 6.67458C31.9865 6.29367 32.3075 5.85905 32.7042 5.3707C33.101 4.88235 33.615 4.37774 34.2462 3.85683C34.8774 3.33591 35.5987 2.87198 36.4103 2.46504C37.2218 2.0581 37.9703 1.74878 38.6555 1.53718C39.3409 1.32558 39.918 1.18718 40.3868 1.12209C40.8557 1.05699 41.0902 1.01953 41.0902 1.00977Z" fill="#5DA8DC" stroke="#5DA8DC" stroke-width="0.5"/>
</svg>
